<mxfile host="app.diagrams.net" agent="Mozilla/5.0 (Windows NT 10.0; Win64; x64) AppleWebKit/537.36 (KHTML, like Gecko) Chrome/128.0.0.0 Safari/537.36" version="24.7.8" pages="8">
  <diagram name="Home" id="sbVSTHeEc8Khvn0jCTg0">
    <mxGraphModel grid="1" page="1" gridSize="10" guides="1" tooltips="1" connect="1" arrows="1" fold="1" pageScale="1" pageWidth="1920" pageHeight="1080" math="0" shadow="0">
      <root>
        <mxCell id="0" />
        <mxCell id="1" parent="0" />
        <mxCell id="GmCFZUTFq7YRnxrkvhaL-1" value="&lt;font style=&quot;font-size: 20px;&quot;&gt;Home&lt;/font&gt;" style="rounded=0;whiteSpace=wrap;html=1;" vertex="1" parent="1">
          <mxGeometry width="200" height="40" as="geometry" />
        </mxCell>
        <mxCell id="GmCFZUTFq7YRnxrkvhaL-2" value="&lt;font style=&quot;font-size: 20px;&quot;&gt;My Account&lt;/font&gt;" style="rounded=0;whiteSpace=wrap;html=1;" vertex="1" parent="1">
          <mxGeometry x="1720" width="200" height="40" as="geometry" />
        </mxCell>
        <mxCell id="GmCFZUTFq7YRnxrkvhaL-3" value="&lt;font style=&quot;font-size: 50px;&quot;&gt;My Latest Project Photo&lt;/font&gt;" style="rounded=0;whiteSpace=wrap;html=1;" vertex="1" parent="1">
          <mxGeometry x="280" y="180" width="920" height="420" as="geometry" />
        </mxCell>
        <mxCell id="GmCFZUTFq7YRnxrkvhaL-5" value="&lt;font style=&quot;font-size: 50px;&quot;&gt;Latest Project Caption&lt;/font&gt;" style="rounded=0;whiteSpace=wrap;html=1;" vertex="1" parent="1">
          <mxGeometry x="1200" y="180" width="440" height="420" as="geometry" />
        </mxCell>
        <mxCell id="GmCFZUTFq7YRnxrkvhaL-6" value="&lt;font style=&quot;font-size: 30px;&quot;&gt;Search for hobbyist, title or tags&lt;/font&gt;" style="rounded=0;whiteSpace=wrap;html=1;" vertex="1" parent="1">
          <mxGeometry x="280" y="80" width="1360" height="80" as="geometry" />
        </mxCell>
        <mxCell id="GmCFZUTFq7YRnxrkvhaL-7" value="&lt;font style=&quot;font-size: 20px;&quot;&gt;My Logs&lt;/font&gt;" style="rounded=0;whiteSpace=wrap;html=1;" vertex="1" parent="1">
          <mxGeometry x="1480" width="200" height="40" as="geometry" />
        </mxCell>
        <mxCell id="GmCFZUTFq7YRnxrkvhaL-8" value="&lt;font style=&quot;font-size: 20px;&quot;&gt;My Spending&lt;/font&gt;" style="rounded=0;whiteSpace=wrap;html=1;" vertex="1" parent="1">
          <mxGeometry x="1240" width="200" height="40" as="geometry" />
        </mxCell>
        <mxCell id="GmCFZUTFq7YRnxrkvhaL-9" value="&lt;span style=&quot;font-size: 20px;&quot;&gt;Guides&lt;/span&gt;" style="rounded=0;whiteSpace=wrap;html=1;" vertex="1" parent="1">
          <mxGeometry x="480" width="200" height="40" as="geometry" />
        </mxCell>
        <mxCell id="GmCFZUTFq7YRnxrkvhaL-10" value="&lt;span style=&quot;font-size: 20px;&quot;&gt;Liked Hobbyists&lt;/span&gt;" style="rounded=0;whiteSpace=wrap;html=1;" vertex="1" parent="1">
          <mxGeometry x="720" width="200" height="40" as="geometry" />
        </mxCell>
        <mxCell id="GmCFZUTFq7YRnxrkvhaL-11" value="&lt;font style=&quot;font-size: 40px;&quot;&gt;Discovery&lt;/font&gt;" style="rounded=0;whiteSpace=wrap;html=1;" vertex="1" parent="1">
          <mxGeometry x="280" y="640" width="1360" height="80" as="geometry" />
        </mxCell>
        <mxCell id="GmCFZUTFq7YRnxrkvhaL-12" value="&lt;span style=&quot;font-size: 50px;&quot;&gt;Liked Hobby Category (woodwork,music, gardening etc)&lt;/span&gt;" style="rounded=0;whiteSpace=wrap;html=1;" vertex="1" parent="1">
          <mxGeometry x="280" y="760" width="440" height="280" as="geometry" />
        </mxCell>
        <mxCell id="GmCFZUTFq7YRnxrkvhaL-13" value="&lt;span style=&quot;font-size: 50px;&quot;&gt;Liked Creator latest project&lt;/span&gt;" style="rounded=0;whiteSpace=wrap;html=1;" vertex="1" parent="1">
          <mxGeometry x="740" y="760" width="440" height="280" as="geometry" />
        </mxCell>
        <mxCell id="GmCFZUTFq7YRnxrkvhaL-14" value="&lt;span style=&quot;font-size: 50px;&quot;&gt;Popular hobby&lt;/span&gt;" style="rounded=0;whiteSpace=wrap;html=1;" vertex="1" parent="1">
          <mxGeometry x="1200" y="760" width="440" height="280" as="geometry" />
        </mxCell>
        <mxCell id="85s8WxTEaQHtq8wKrOcY-1" value="&lt;span style=&quot;font-size: 20px;&quot;&gt;Settings&lt;/span&gt;" style="rounded=0;whiteSpace=wrap;html=1;" vertex="1" parent="1">
          <mxGeometry x="240" width="200" height="40" as="geometry" />
        </mxCell>
        <mxCell id="85s8WxTEaQHtq8wKrOcY-2" value="&lt;span style=&quot;font-size: 20px;&quot;&gt;For Business&lt;/span&gt;" style="rounded=0;whiteSpace=wrap;html=1;" vertex="1" parent="1">
          <mxGeometry x="1000" width="200" height="40" as="geometry" />
        </mxCell>
      </root>
    </mxGraphModel>
  </diagram>
  <diagram id="O-eFL_353cK5m40JCmFn" name="My Spending">
    <mxGraphModel grid="1" page="1" gridSize="10" guides="1" tooltips="1" connect="1" arrows="1" fold="1" pageScale="1" pageWidth="1920" pageHeight="1080" math="0" shadow="0">
      <root>
        <mxCell id="0" />
        <mxCell id="1" parent="0" />
        <mxCell id="Qk-C6yxF5CyuzVPuHcHw-1" value="&lt;font style=&quot;font-size: 40px;&quot;&gt;My Spending&lt;/font&gt;" style="rounded=0;whiteSpace=wrap;html=1;" vertex="1" parent="1">
          <mxGeometry x="440" y="40" width="1040" height="80" as="geometry" />
        </mxCell>
        <mxCell id="Qk-C6yxF5CyuzVPuHcHw-2" value="&lt;font style=&quot;font-size: 40px;&quot;&gt;Project - Drop Down&lt;/font&gt;" style="rounded=0;whiteSpace=wrap;html=1;" vertex="1" parent="1">
          <mxGeometry x="80" y="160" width="640" height="80" as="geometry" />
        </mxCell>
        <mxCell id="rQ4TsWxULD3wKWpOytbA-2" style="edgeStyle=orthogonalEdgeStyle;rounded=0;orthogonalLoop=1;jettySize=auto;html=1;exitX=1;exitY=1;exitDx=0;exitDy=0;entryX=0.5;entryY=0;entryDx=0;entryDy=0;" edge="1" parent="1" source="Qk-C6yxF5CyuzVPuHcHw-3" target="Qk-C6yxF5CyuzVPuHcHw-8">
          <mxGeometry relative="1" as="geometry" />
        </mxCell>
        <mxCell id="Qk-C6yxF5CyuzVPuHcHw-3" value="&lt;font style=&quot;font-size: 40px;&quot;&gt;List&lt;/font&gt;" style="rounded=0;whiteSpace=wrap;html=1;" vertex="1" parent="1">
          <mxGeometry x="80" y="280" width="320" height="360" as="geometry" />
        </mxCell>
        <mxCell id="Qk-C6yxF5CyuzVPuHcHw-4" value="&lt;font style=&quot;font-size: 40px;&quot;&gt;Price&lt;/font&gt;" style="rounded=0;whiteSpace=wrap;html=1;" vertex="1" parent="1">
          <mxGeometry x="400" y="280" width="160" height="360" as="geometry" />
        </mxCell>
        <mxCell id="Qk-C6yxF5CyuzVPuHcHw-5" value="&lt;span style=&quot;font-size: 40px;&quot;&gt;Graph (Likely Pie chart but bar graph preferable)&lt;/span&gt;&lt;div&gt;&lt;span style=&quot;font-size: 40px;&quot;&gt;&lt;br&gt;&lt;/span&gt;&lt;/div&gt;" style="rounded=0;whiteSpace=wrap;html=1;" vertex="1" parent="1">
          <mxGeometry x="880" y="280" width="960" height="440" as="geometry" />
        </mxCell>
        <mxCell id="Qk-C6yxF5CyuzVPuHcHw-6" value="&lt;font style=&quot;font-size: 40px;&quot;&gt;My Spending&lt;/font&gt;" style="rounded=0;whiteSpace=wrap;html=1;" vertex="1" parent="1">
          <mxGeometry x="880" y="160" width="480" height="80" as="geometry" />
        </mxCell>
        <mxCell id="Qk-C6yxF5CyuzVPuHcHw-7" value="&lt;font style=&quot;font-size: 40px;&quot;&gt;Date - Date&lt;/font&gt;" style="rounded=0;whiteSpace=wrap;html=1;" vertex="1" parent="1">
          <mxGeometry x="1360" y="160" width="480" height="80" as="geometry" />
        </mxCell>
        <mxCell id="Qk-C6yxF5CyuzVPuHcHw-8" value="&lt;font style=&quot;font-size: 40px;&quot;&gt;Budget Left&lt;/font&gt;" style="rounded=0;whiteSpace=wrap;html=1;" vertex="1" parent="1">
          <mxGeometry x="80" y="880" width="640" height="80" as="geometry" />
        </mxCell>
        <mxCell id="rQ4TsWxULD3wKWpOytbA-1" value="&lt;font style=&quot;font-size: 20px;&quot;&gt;Home&lt;/font&gt;" style="rounded=0;whiteSpace=wrap;html=1;" vertex="1" parent="1">
          <mxGeometry width="200" height="40" as="geometry" />
        </mxCell>
        <mxCell id="rQ4TsWxULD3wKWpOytbA-4" value="&lt;font style=&quot;font-size: 40px;&quot;&gt;Expanding&lt;/font&gt;" style="text;strokeColor=none;align=center;fillColor=none;html=1;verticalAlign=middle;whiteSpace=wrap;rounded=0;" vertex="1" parent="1">
          <mxGeometry x="430" y="750" width="260" height="100" as="geometry" />
        </mxCell>
        <mxCell id="R5dMMhjgEsjYq8YBJ-na-1" value="&lt;font style=&quot;font-size: 20px;&quot;&gt;My Account&lt;/font&gt;" style="rounded=0;whiteSpace=wrap;html=1;" vertex="1" parent="1">
          <mxGeometry x="1720" width="200" height="40" as="geometry" />
        </mxCell>
        <mxCell id="M_zQXc0IEzBqkwv7d2Im-1" value="&lt;font style=&quot;font-size: 40px;&quot;&gt;Business&lt;/font&gt;" style="rounded=0;whiteSpace=wrap;html=1;" vertex="1" parent="1">
          <mxGeometry x="560" y="280" width="160" height="360" as="geometry" />
        </mxCell>
        <mxCell id="cPVpolEov6kdL0g1g1m7-1" value="&lt;font style=&quot;font-size: 20px;&quot;&gt;Home&lt;/font&gt;" style="rounded=0;whiteSpace=wrap;html=1;" vertex="1" parent="1">
          <mxGeometry width="200" height="40" as="geometry" />
        </mxCell>
        <mxCell id="cPVpolEov6kdL0g1g1m7-2" value="&lt;font style=&quot;font-size: 20px;&quot;&gt;My Account&lt;/font&gt;" style="rounded=0;whiteSpace=wrap;html=1;" vertex="1" parent="1">
          <mxGeometry x="1720" width="200" height="40" as="geometry" />
        </mxCell>
        <mxCell id="cPVpolEov6kdL0g1g1m7-3" value="&lt;font style=&quot;font-size: 20px;&quot;&gt;My Logs&lt;/font&gt;" style="rounded=0;whiteSpace=wrap;html=1;" vertex="1" parent="1">
          <mxGeometry x="1480" width="200" height="40" as="geometry" />
        </mxCell>
        <mxCell id="cPVpolEov6kdL0g1g1m7-4" value="&lt;font style=&quot;font-size: 20px;&quot;&gt;My Spending&lt;/font&gt;" style="rounded=0;whiteSpace=wrap;html=1;" vertex="1" parent="1">
          <mxGeometry x="1240" width="200" height="40" as="geometry" />
        </mxCell>
        <mxCell id="cPVpolEov6kdL0g1g1m7-5" value="&lt;span style=&quot;font-size: 20px;&quot;&gt;Guides&lt;/span&gt;" style="rounded=0;whiteSpace=wrap;html=1;" vertex="1" parent="1">
          <mxGeometry x="480" width="200" height="40" as="geometry" />
        </mxCell>
        <mxCell id="cPVpolEov6kdL0g1g1m7-6" value="&lt;span style=&quot;font-size: 20px;&quot;&gt;Liked Hobbyists&lt;/span&gt;" style="rounded=0;whiteSpace=wrap;html=1;" vertex="1" parent="1">
          <mxGeometry x="720" width="200" height="40" as="geometry" />
        </mxCell>
        <mxCell id="cPVpolEov6kdL0g1g1m7-7" value="&lt;span style=&quot;font-size: 20px;&quot;&gt;Settings&lt;/span&gt;" style="rounded=0;whiteSpace=wrap;html=1;" vertex="1" parent="1">
          <mxGeometry x="240" width="200" height="40" as="geometry" />
        </mxCell>
        <mxCell id="cPVpolEov6kdL0g1g1m7-8" value="&lt;span style=&quot;font-size: 20px;&quot;&gt;For Business&lt;/span&gt;" style="rounded=0;whiteSpace=wrap;html=1;" vertex="1" parent="1">
          <mxGeometry x="1000" width="200" height="40" as="geometry" />
        </mxCell>
      </root>
    </mxGraphModel>
  </diagram>
  <diagram id="5CjeC6vP6nMVvRANcOw8" name="My Logs">
    <mxGraphModel grid="1" page="1" gridSize="10" guides="1" tooltips="1" connect="1" arrows="1" fold="1" pageScale="1" pageWidth="1920" pageHeight="1080" math="0" shadow="0">
      <root>
        <mxCell id="0" />
        <mxCell id="1" parent="0" />
        <mxCell id="EGg2qbULmWdiALJaKu0B-1" value="&lt;font style=&quot;font-size: 20px;&quot;&gt;Home&lt;/font&gt;" style="rounded=0;whiteSpace=wrap;html=1;" vertex="1" parent="1">
          <mxGeometry width="200" height="40" as="geometry" />
        </mxCell>
        <mxCell id="2NyzH66EQGALbeiwvmcz-1" value="&lt;font style=&quot;font-size: 40px;&quot;&gt;My Logs&lt;/font&gt;" style="rounded=0;whiteSpace=wrap;html=1;" vertex="1" parent="1">
          <mxGeometry x="440" y="40" width="1040" height="80" as="geometry" />
        </mxCell>
        <mxCell id="NV8GbnrxALti_1ooOaKt-1" value="&lt;font style=&quot;font-size: 40px;&quot;&gt;Latest Project&lt;/font&gt;" style="rounded=0;whiteSpace=wrap;html=1;" vertex="1" parent="1">
          <mxGeometry x="160" y="160" width="480" height="80" as="geometry" />
        </mxCell>
        <mxCell id="NV8GbnrxALti_1ooOaKt-2" value="&lt;font style=&quot;font-size: 40px;&quot;&gt;My Projects&lt;/font&gt;" style="rounded=0;whiteSpace=wrap;html=1;" vertex="1" parent="1">
          <mxGeometry x="1280" y="160" width="480" height="80" as="geometry" />
        </mxCell>
        <mxCell id="NV8GbnrxALti_1ooOaKt-3" value="&lt;font style=&quot;font-size: 40px;&quot;&gt;P1&lt;/font&gt;" style="rounded=0;whiteSpace=wrap;html=1;" vertex="1" parent="1">
          <mxGeometry x="1280" y="320" width="240" height="80" as="geometry" />
        </mxCell>
        <mxCell id="NV8GbnrxALti_1ooOaKt-6" value="&lt;font style=&quot;font-size: 40px;&quot;&gt;Date&lt;/font&gt;" style="rounded=0;whiteSpace=wrap;html=1;" vertex="1" parent="1">
          <mxGeometry x="1520" y="320" width="240" height="80" as="geometry" />
        </mxCell>
        <mxCell id="NV8GbnrxALti_1ooOaKt-7" value="&lt;font style=&quot;font-size: 40px;&quot;&gt;P2&lt;/font&gt;" style="rounded=0;whiteSpace=wrap;html=1;" vertex="1" parent="1">
          <mxGeometry x="1280" y="400" width="240" height="80" as="geometry" />
        </mxCell>
        <mxCell id="NV8GbnrxALti_1ooOaKt-8" value="&lt;font style=&quot;font-size: 40px;&quot;&gt;Date&lt;/font&gt;" style="rounded=0;whiteSpace=wrap;html=1;" vertex="1" parent="1">
          <mxGeometry x="1520" y="400" width="240" height="80" as="geometry" />
        </mxCell>
        <mxCell id="NV8GbnrxALti_1ooOaKt-9" value="&lt;font style=&quot;font-size: 40px;&quot;&gt;P3&lt;/font&gt;" style="rounded=0;whiteSpace=wrap;html=1;" vertex="1" parent="1">
          <mxGeometry x="1280" y="480" width="240" height="80" as="geometry" />
        </mxCell>
        <mxCell id="NV8GbnrxALti_1ooOaKt-10" value="&lt;font style=&quot;font-size: 40px;&quot;&gt;Date&lt;/font&gt;" style="rounded=0;whiteSpace=wrap;html=1;" vertex="1" parent="1">
          <mxGeometry x="1520" y="480" width="240" height="80" as="geometry" />
        </mxCell>
        <mxCell id="NV8GbnrxALti_1ooOaKt-11" value="&lt;font style=&quot;font-size: 40px;&quot;&gt;P4&lt;/font&gt;" style="rounded=0;whiteSpace=wrap;html=1;" vertex="1" parent="1">
          <mxGeometry x="1280" y="560" width="240" height="80" as="geometry" />
        </mxCell>
        <mxCell id="NV8GbnrxALti_1ooOaKt-12" value="&lt;font style=&quot;font-size: 40px;&quot;&gt;Date&lt;/font&gt;" style="rounded=0;whiteSpace=wrap;html=1;" vertex="1" parent="1">
          <mxGeometry x="1520" y="560" width="240" height="80" as="geometry" />
        </mxCell>
        <mxCell id="RJg0xEHgqa58KW8iP3YO-1" style="edgeStyle=orthogonalEdgeStyle;rounded=0;orthogonalLoop=1;jettySize=auto;html=1;exitX=0.5;exitY=1;exitDx=0;exitDy=0;" edge="1" parent="1" source="zrLupeV8P1_wbBZfBxP9-1">
          <mxGeometry relative="1" as="geometry">
            <mxPoint x="320" y="1070" as="targetPoint" />
          </mxGeometry>
        </mxCell>
        <mxCell id="zrLupeV8P1_wbBZfBxP9-1" value="&lt;font style=&quot;font-size: 40px;&quot;&gt;Todo List&lt;/font&gt;" style="rounded=0;whiteSpace=wrap;html=1;" vertex="1" parent="1">
          <mxGeometry x="160" y="280" width="320" height="360" as="geometry" />
        </mxCell>
        <mxCell id="hljSt8gf0urvJjKuXrvA-1" value="&lt;font style=&quot;font-size: 40px;&quot;&gt;Date&lt;/font&gt;&lt;div&gt;&lt;font style=&quot;font-size: 40px;&quot;&gt;Finished&lt;/font&gt;&lt;/div&gt;" style="rounded=0;whiteSpace=wrap;html=1;" vertex="1" parent="1">
          <mxGeometry x="480" y="280" width="160" height="360" as="geometry" />
        </mxCell>
        <mxCell id="LybvA4QUG5oalUBe316i-1" value="&lt;font style=&quot;font-size: 40px;&quot;&gt;Expanding&lt;/font&gt;" style="text;strokeColor=none;align=center;fillColor=none;html=1;verticalAlign=middle;whiteSpace=wrap;rounded=0;" vertex="1" parent="1">
          <mxGeometry x="400" y="750" width="260" height="100" as="geometry" />
        </mxCell>
        <mxCell id="AD9WpxaWhbjdMQM16wyf-1" value="&lt;font style=&quot;font-size: 20px;&quot;&gt;My Account&lt;/font&gt;" style="rounded=0;whiteSpace=wrap;html=1;" vertex="1" parent="1">
          <mxGeometry x="1720" width="200" height="40" as="geometry" />
        </mxCell>
        <mxCell id="9nKMUua1_T5IygAyl0oa-1" value="&lt;font style=&quot;font-size: 20px;&quot;&gt;Home&lt;/font&gt;" style="rounded=0;whiteSpace=wrap;html=1;" vertex="1" parent="1">
          <mxGeometry width="200" height="40" as="geometry" />
        </mxCell>
        <mxCell id="9nKMUua1_T5IygAyl0oa-2" value="&lt;font style=&quot;font-size: 20px;&quot;&gt;My Account&lt;/font&gt;" style="rounded=0;whiteSpace=wrap;html=1;" vertex="1" parent="1">
          <mxGeometry x="1720" width="200" height="40" as="geometry" />
        </mxCell>
        <mxCell id="9nKMUua1_T5IygAyl0oa-3" value="&lt;font style=&quot;font-size: 20px;&quot;&gt;My Logs&lt;/font&gt;" style="rounded=0;whiteSpace=wrap;html=1;" vertex="1" parent="1">
          <mxGeometry x="1480" width="200" height="40" as="geometry" />
        </mxCell>
        <mxCell id="9nKMUua1_T5IygAyl0oa-4" value="&lt;font style=&quot;font-size: 20px;&quot;&gt;My Spending&lt;/font&gt;" style="rounded=0;whiteSpace=wrap;html=1;" vertex="1" parent="1">
          <mxGeometry x="1240" width="200" height="40" as="geometry" />
        </mxCell>
        <mxCell id="9nKMUua1_T5IygAyl0oa-5" value="&lt;span style=&quot;font-size: 20px;&quot;&gt;Guides&lt;/span&gt;" style="rounded=0;whiteSpace=wrap;html=1;" vertex="1" parent="1">
          <mxGeometry x="480" width="200" height="40" as="geometry" />
        </mxCell>
        <mxCell id="9nKMUua1_T5IygAyl0oa-6" value="&lt;span style=&quot;font-size: 20px;&quot;&gt;Liked Hobbyists&lt;/span&gt;" style="rounded=0;whiteSpace=wrap;html=1;" vertex="1" parent="1">
          <mxGeometry x="720" width="200" height="40" as="geometry" />
        </mxCell>
        <mxCell id="9nKMUua1_T5IygAyl0oa-7" value="&lt;span style=&quot;font-size: 20px;&quot;&gt;Settings&lt;/span&gt;" style="rounded=0;whiteSpace=wrap;html=1;" vertex="1" parent="1">
          <mxGeometry x="240" width="200" height="40" as="geometry" />
        </mxCell>
        <mxCell id="9nKMUua1_T5IygAyl0oa-8" value="&lt;span style=&quot;font-size: 20px;&quot;&gt;For Business&lt;/span&gt;" style="rounded=0;whiteSpace=wrap;html=1;" vertex="1" parent="1">
          <mxGeometry x="1000" width="200" height="40" as="geometry" />
        </mxCell>
      </root>
    </mxGraphModel>
  </diagram>
  <diagram id="LKQV3p83h1hl-bAapN0g" name="Current Project Creator">
    <mxGraphModel grid="1" page="1" gridSize="10" guides="1" tooltips="1" connect="1" arrows="1" fold="1" pageScale="1" pageWidth="1920" pageHeight="1080" math="0" shadow="0">
      <root>
        <mxCell id="0" />
        <mxCell id="1" parent="0" />
        <mxCell id="zFybRp19xdnBFc7QdkN5-1" value="&lt;font style=&quot;font-size: 40px;&quot;&gt;My Current Project&lt;/font&gt;" style="rounded=0;whiteSpace=wrap;html=1;" vertex="1" parent="1">
          <mxGeometry x="440" y="40" width="1040" height="80" as="geometry" />
        </mxCell>
        <mxCell id="U9ZXl2ZZzEUxtcL5WbZf-1" value="&lt;span style=&quot;font-size: 40px;&quot;&gt;Last Updated - Date&lt;/span&gt;" style="rounded=0;whiteSpace=wrap;html=1;" vertex="1" parent="1">
          <mxGeometry x="960" y="160" width="400" height="80" as="geometry" />
        </mxCell>
        <mxCell id="xBqjIGbbj-DfptGHzKfU-1" value="&lt;span style=&quot;font-size: 40px; background-color: initial;&quot;&gt;Instructions List -&amp;nbsp;&lt;/span&gt;&lt;div&gt;&lt;span style=&quot;font-size: 40px; background-color: initial;&quot;&gt;Each Instruction is an update post&lt;/span&gt;&lt;/div&gt;" style="rounded=0;whiteSpace=wrap;html=1;" vertex="1" parent="1">
          <mxGeometry x="80" y="160" width="800" height="440" as="geometry" />
        </mxCell>
        <mxCell id="xBqjIGbbj-DfptGHzKfU-2" value="&lt;font style=&quot;font-size: 37px;&quot;&gt;Timeline -&amp;nbsp;&lt;/font&gt;&lt;div style=&quot;font-size: 37px;&quot;&gt;&lt;font style=&quot;font-size: 37px;&quot;&gt;Start date-End date&lt;/font&gt;&lt;/div&gt;" style="rounded=0;whiteSpace=wrap;html=1;" vertex="1" parent="1">
          <mxGeometry x="1440" y="160" width="400" height="80" as="geometry" />
        </mxCell>
        <mxCell id="xBqjIGbbj-DfptGHzKfU-3" value="&lt;span style=&quot;font-size: 40px;&quot;&gt;Create&lt;/span&gt;" style="rounded=0;whiteSpace=wrap;html=1;" vertex="1" parent="1">
          <mxGeometry x="80" y="640" width="240" height="80" as="geometry" />
        </mxCell>
        <mxCell id="xBqjIGbbj-DfptGHzKfU-6" value="&lt;span style=&quot;font-size: 40px;&quot;&gt;Delete&lt;/span&gt;" style="rounded=0;whiteSpace=wrap;html=1;" vertex="1" parent="1">
          <mxGeometry x="360" y="640" width="240" height="80" as="geometry" />
        </mxCell>
        <mxCell id="xBqjIGbbj-DfptGHzKfU-7" value="&lt;span style=&quot;font-size: 40px;&quot;&gt;Update&lt;/span&gt;" style="rounded=0;whiteSpace=wrap;html=1;" vertex="1" parent="1">
          <mxGeometry x="640" y="640" width="240" height="80" as="geometry" />
        </mxCell>
        <mxCell id="xBqjIGbbj-DfptGHzKfU-8" value="&lt;span style=&quot;font-size: 40px; background-color: initial;&quot;&gt;Todo List&lt;/span&gt;" style="rounded=0;whiteSpace=wrap;html=1;" vertex="1" parent="1">
          <mxGeometry x="960" y="280" width="720" height="440" as="geometry" />
        </mxCell>
        <mxCell id="xBqjIGbbj-DfptGHzKfU-9" value="&lt;span style=&quot;font-size: 40px;&quot;&gt;Date&lt;/span&gt;" style="rounded=0;whiteSpace=wrap;html=1;" vertex="1" parent="1">
          <mxGeometry x="1680" y="280" width="160" height="440" as="geometry" />
        </mxCell>
        <mxCell id="xBqjIGbbj-DfptGHzKfU-10" value="&lt;span style=&quot;font-size: 40px; background-color: initial;&quot;&gt;Media&lt;/span&gt;" style="rounded=0;whiteSpace=wrap;html=1;" vertex="1" parent="1">
          <mxGeometry x="360" y="760" width="520" height="280" as="geometry" />
        </mxCell>
        <mxCell id="xBqjIGbbj-DfptGHzKfU-11" value="&lt;span style=&quot;font-size: 40px;&quot;&gt;Attach media&lt;/span&gt;" style="rounded=0;whiteSpace=wrap;html=1;" vertex="1" parent="1">
          <mxGeometry x="80" y="760" width="240" height="80" as="geometry" />
        </mxCell>
        <mxCell id="xBqjIGbbj-DfptGHzKfU-12" value="&lt;span style=&quot;font-size: 40px;&quot;&gt;Remove media&lt;/span&gt;" style="rounded=0;whiteSpace=wrap;html=1;" vertex="1" parent="1">
          <mxGeometry x="80" y="840" width="240" height="80" as="geometry" />
        </mxCell>
        <mxCell id="ezO7EVV87qKu0jEUSXfp-1" value="&lt;font style=&quot;font-size: 20px;&quot;&gt;Home&lt;/font&gt;" style="rounded=0;whiteSpace=wrap;html=1;" vertex="1" parent="1">
          <mxGeometry width="200" height="40" as="geometry" />
        </mxCell>
        <mxCell id="PefHsWaFl8d-mAfI-AHs-1" value="&lt;font style=&quot;font-size: 20px;&quot;&gt;My Account&lt;/font&gt;" style="rounded=0;whiteSpace=wrap;html=1;" vertex="1" parent="1">
          <mxGeometry x="1720" width="200" height="40" as="geometry" />
        </mxCell>
        <mxCell id="LKCaOf8__rim_SxG-JOb-1" value="&lt;span style=&quot;font-size: 40px; background-color: initial;&quot;&gt;Materials List&lt;/span&gt;" style="rounded=0;whiteSpace=wrap;html=1;" vertex="1" parent="1">
          <mxGeometry x="960" y="760" width="520" height="280" as="geometry" />
        </mxCell>
        <mxCell id="LKCaOf8__rim_SxG-JOb-2" value="&lt;span style=&quot;font-size: 40px; background-color: initial;&quot;&gt;Price&lt;/span&gt;" style="rounded=0;whiteSpace=wrap;html=1;" vertex="1" parent="1">
          <mxGeometry x="1480" y="760" width="120" height="280" as="geometry" />
        </mxCell>
        <mxCell id="LKCaOf8__rim_SxG-JOb-3" value="&lt;span style=&quot;background-color: initial;&quot;&gt;&lt;font style=&quot;font-size: 20px;&quot;&gt;Business&lt;/font&gt;&lt;/span&gt;" style="rounded=0;whiteSpace=wrap;html=1;" vertex="1" parent="1">
          <mxGeometry x="1600" y="760" width="120" height="280" as="geometry" />
        </mxCell>
        <mxCell id="LKCaOf8__rim_SxG-JOb-4" value="&lt;span style=&quot;font-size: 40px;&quot;&gt;Add&lt;/span&gt;" style="rounded=0;whiteSpace=wrap;html=1;" vertex="1" parent="1">
          <mxGeometry x="1720" y="800" width="120" height="80" as="geometry" />
        </mxCell>
        <mxCell id="LKCaOf8__rim_SxG-JOb-5" value="&lt;font style=&quot;font-size: 20px;&quot;&gt;Remove&lt;/font&gt;" style="rounded=0;whiteSpace=wrap;html=1;" vertex="1" parent="1">
          <mxGeometry x="1720" y="920" width="120" height="80" as="geometry" />
        </mxCell>
        <mxCell id="acH38Jpm8Inm5_w0t7g2-1" value="&lt;font style=&quot;font-size: 20px;&quot;&gt;Home&lt;/font&gt;" style="rounded=0;whiteSpace=wrap;html=1;" vertex="1" parent="1">
          <mxGeometry width="200" height="40" as="geometry" />
        </mxCell>
        <mxCell id="acH38Jpm8Inm5_w0t7g2-2" value="&lt;font style=&quot;font-size: 20px;&quot;&gt;My Account&lt;/font&gt;" style="rounded=0;whiteSpace=wrap;html=1;" vertex="1" parent="1">
          <mxGeometry x="1720" width="200" height="40" as="geometry" />
        </mxCell>
        <mxCell id="acH38Jpm8Inm5_w0t7g2-3" value="&lt;font style=&quot;font-size: 20px;&quot;&gt;My Logs&lt;/font&gt;" style="rounded=0;whiteSpace=wrap;html=1;" vertex="1" parent="1">
          <mxGeometry x="1480" width="200" height="40" as="geometry" />
        </mxCell>
        <mxCell id="acH38Jpm8Inm5_w0t7g2-4" value="&lt;font style=&quot;font-size: 20px;&quot;&gt;My Spending&lt;/font&gt;" style="rounded=0;whiteSpace=wrap;html=1;" vertex="1" parent="1">
          <mxGeometry x="1240" width="200" height="40" as="geometry" />
        </mxCell>
        <mxCell id="acH38Jpm8Inm5_w0t7g2-5" value="&lt;span style=&quot;font-size: 20px;&quot;&gt;Guides&lt;/span&gt;" style="rounded=0;whiteSpace=wrap;html=1;" vertex="1" parent="1">
          <mxGeometry x="480" width="200" height="40" as="geometry" />
        </mxCell>
        <mxCell id="acH38Jpm8Inm5_w0t7g2-6" value="&lt;span style=&quot;font-size: 20px;&quot;&gt;Liked Hobbyists&lt;/span&gt;" style="rounded=0;whiteSpace=wrap;html=1;" vertex="1" parent="1">
          <mxGeometry x="720" width="200" height="40" as="geometry" />
        </mxCell>
        <mxCell id="acH38Jpm8Inm5_w0t7g2-7" value="&lt;span style=&quot;font-size: 20px;&quot;&gt;Settings&lt;/span&gt;" style="rounded=0;whiteSpace=wrap;html=1;" vertex="1" parent="1">
          <mxGeometry x="240" width="200" height="40" as="geometry" />
        </mxCell>
        <mxCell id="acH38Jpm8Inm5_w0t7g2-8" value="&lt;span style=&quot;font-size: 20px;&quot;&gt;For Business&lt;/span&gt;" style="rounded=0;whiteSpace=wrap;html=1;" vertex="1" parent="1">
          <mxGeometry x="1000" width="200" height="40" as="geometry" />
        </mxCell>
        <mxCell id="7SIi7D0WxVthKjNlBFB_-1" value="&lt;span style=&quot;font-size: 40px;&quot;&gt;Post&lt;/span&gt;" style="rounded=0;whiteSpace=wrap;html=1;" vertex="1" parent="1">
          <mxGeometry x="80" y="920" width="240" height="80" as="geometry" />
        </mxCell>
      </root>
    </mxGraphModel>
  </diagram>
  <diagram id="lm6YlrYn_uBT9b5enFdb" name="Current Project Viewer">
    <mxGraphModel grid="1" page="1" gridSize="10" guides="1" tooltips="1" connect="1" arrows="1" fold="1" pageScale="1" pageWidth="1920" pageHeight="1080" math="0" shadow="0">
      <root>
        <mxCell id="0" />
        <mxCell id="1" parent="0" />
        <mxCell id="xWE7inD5CVv-ESvl17m1-1" value="&lt;font style=&quot;font-size: 20px;&quot;&gt;Home&lt;/font&gt;" style="rounded=0;whiteSpace=wrap;html=1;" vertex="1" parent="1">
          <mxGeometry width="200" height="40" as="geometry" />
        </mxCell>
        <mxCell id="xWE7inD5CVv-ESvl17m1-2" value="&lt;font style=&quot;font-size: 20px;&quot;&gt;My Account&lt;/font&gt;" style="rounded=0;whiteSpace=wrap;html=1;" vertex="1" parent="1">
          <mxGeometry x="1720" width="200" height="40" as="geometry" />
        </mxCell>
        <mxCell id="xWE7inD5CVv-ESvl17m1-3" value="&lt;font style=&quot;font-size: 20px;&quot;&gt;My Logs&lt;/font&gt;" style="rounded=0;whiteSpace=wrap;html=1;" vertex="1" parent="1">
          <mxGeometry x="1480" width="200" height="40" as="geometry" />
        </mxCell>
        <mxCell id="xWE7inD5CVv-ESvl17m1-4" value="&lt;font style=&quot;font-size: 20px;&quot;&gt;My Spending&lt;/font&gt;" style="rounded=0;whiteSpace=wrap;html=1;" vertex="1" parent="1">
          <mxGeometry x="1240" width="200" height="40" as="geometry" />
        </mxCell>
        <mxCell id="xWE7inD5CVv-ESvl17m1-5" value="&lt;span style=&quot;font-size: 20px;&quot;&gt;Guides&lt;/span&gt;" style="rounded=0;whiteSpace=wrap;html=1;" vertex="1" parent="1">
          <mxGeometry x="480" width="200" height="40" as="geometry" />
        </mxCell>
        <mxCell id="xWE7inD5CVv-ESvl17m1-6" value="&lt;span style=&quot;font-size: 20px;&quot;&gt;Liked Hobbyists&lt;/span&gt;" style="rounded=0;whiteSpace=wrap;html=1;" vertex="1" parent="1">
          <mxGeometry x="720" width="200" height="40" as="geometry" />
        </mxCell>
        <mxCell id="xWE7inD5CVv-ESvl17m1-7" value="&lt;span style=&quot;font-size: 20px;&quot;&gt;Settings&lt;/span&gt;" style="rounded=0;whiteSpace=wrap;html=1;" vertex="1" parent="1">
          <mxGeometry x="240" width="200" height="40" as="geometry" />
        </mxCell>
        <mxCell id="xWE7inD5CVv-ESvl17m1-8" value="&lt;span style=&quot;font-size: 20px;&quot;&gt;For Business&lt;/span&gt;" style="rounded=0;whiteSpace=wrap;html=1;" vertex="1" parent="1">
          <mxGeometry x="1000" width="200" height="40" as="geometry" />
        </mxCell>
        <mxCell id="Q_MRXvC4T43gOPtEjUyF-1" value="&lt;font style=&quot;font-size: 40px;&quot;&gt;The Current Project&lt;/font&gt;" style="rounded=0;whiteSpace=wrap;html=1;" vertex="1" parent="1">
          <mxGeometry x="440" y="40" width="1040" height="80" as="geometry" />
        </mxCell>
        <mxCell id="kw1WchRg1yLVyk9eOPbb-1" value="&lt;span style=&quot;font-size: 40px;&quot;&gt;Last Updated - Date&lt;/span&gt;" style="rounded=0;whiteSpace=wrap;html=1;" vertex="1" parent="1">
          <mxGeometry x="960" y="160" width="400" height="80" as="geometry" />
        </mxCell>
        <mxCell id="kw1WchRg1yLVyk9eOPbb-2" value="&lt;span style=&quot;font-size: 40px;&quot;&gt;Radio Button Instructions&lt;/span&gt;" style="rounded=0;whiteSpace=wrap;html=1;" vertex="1" parent="1">
          <mxGeometry x="80" y="160" width="480" height="480" as="geometry" />
        </mxCell>
        <mxCell id="kw1WchRg1yLVyk9eOPbb-3" value="&lt;font style=&quot;font-size: 37px;&quot;&gt;Timeline -&amp;nbsp;&lt;/font&gt;&lt;div style=&quot;font-size: 37px;&quot;&gt;&lt;font style=&quot;font-size: 37px;&quot;&gt;Start date-End date&lt;/font&gt;&lt;/div&gt;" style="rounded=0;whiteSpace=wrap;html=1;" vertex="1" parent="1">
          <mxGeometry x="1440" y="160" width="400" height="80" as="geometry" />
        </mxCell>
        <mxCell id="kw1WchRg1yLVyk9eOPbb-9" value="&lt;span style=&quot;font-size: 40px; background-color: initial;&quot;&gt;Media - Arrows to cycle between multiple photos or videos&lt;/span&gt;" style="rounded=0;whiteSpace=wrap;html=1;" vertex="1" parent="1">
          <mxGeometry x="1190" y="320" width="650" height="400" as="geometry" />
        </mxCell>
        <mxCell id="gW64aba4t_c_BHSM494z-1" value="&lt;span style=&quot;font-size: 40px; background-color: initial;&quot;&gt;Instruction Text&lt;/span&gt;" style="rounded=0;whiteSpace=wrap;html=1;" vertex="1" parent="1">
          <mxGeometry x="720" y="320" width="480" height="400" as="geometry" />
        </mxCell>
        <mxCell id="wFsGSN9UH6A-5ywHAa-b-2" value="&lt;span style=&quot;font-size: 40px;&quot;&gt;Other projects by creator list&lt;/span&gt;" style="rounded=0;whiteSpace=wrap;html=1;" vertex="1" parent="1">
          <mxGeometry x="80" y="720" width="480" height="320" as="geometry" />
        </mxCell>
        <mxCell id="wFsGSN9UH6A-5ywHAa-b-3" value="&lt;span style=&quot;font-size: 40px;&quot;&gt;Comments??? from other users&lt;/span&gt;" style="rounded=0;whiteSpace=wrap;html=1;" vertex="1" parent="1">
          <mxGeometry x="720" y="800" width="1120" height="240" as="geometry" />
        </mxCell>
      </root>
    </mxGraphModel>
  </diagram>
  <diagram id="lhnKTYJTwd-q1jCkWOBe" name="Guides">
    <mxGraphModel grid="1" page="1" gridSize="10" guides="1" tooltips="1" connect="1" arrows="1" fold="1" pageScale="1" pageWidth="1920" pageHeight="1080" math="0" shadow="0">
      <root>
        <mxCell id="0" />
        <mxCell id="1" parent="0" />
        <mxCell id="ISeNV_ZBtfQk-ASyH4VX-1" value="&lt;font style=&quot;font-size: 20px;&quot;&gt;Home&lt;/font&gt;" style="rounded=0;whiteSpace=wrap;html=1;" vertex="1" parent="1">
          <mxGeometry width="200" height="40" as="geometry" />
        </mxCell>
        <mxCell id="ISeNV_ZBtfQk-ASyH4VX-2" value="&lt;font style=&quot;font-size: 20px;&quot;&gt;My Account&lt;/font&gt;" style="rounded=0;whiteSpace=wrap;html=1;" vertex="1" parent="1">
          <mxGeometry x="1720" width="200" height="40" as="geometry" />
        </mxCell>
        <mxCell id="ISeNV_ZBtfQk-ASyH4VX-3" value="&lt;font style=&quot;font-size: 20px;&quot;&gt;My Logs&lt;/font&gt;" style="rounded=0;whiteSpace=wrap;html=1;" vertex="1" parent="1">
          <mxGeometry x="1480" width="200" height="40" as="geometry" />
        </mxCell>
        <mxCell id="ISeNV_ZBtfQk-ASyH4VX-4" value="&lt;font style=&quot;font-size: 20px;&quot;&gt;My Spending&lt;/font&gt;" style="rounded=0;whiteSpace=wrap;html=1;" vertex="1" parent="1">
          <mxGeometry x="1240" width="200" height="40" as="geometry" />
        </mxCell>
        <mxCell id="ISeNV_ZBtfQk-ASyH4VX-5" value="&lt;span style=&quot;font-size: 20px;&quot;&gt;Guides&lt;/span&gt;" style="rounded=0;whiteSpace=wrap;html=1;" vertex="1" parent="1">
          <mxGeometry x="480" width="200" height="40" as="geometry" />
        </mxCell>
        <mxCell id="ISeNV_ZBtfQk-ASyH4VX-6" value="&lt;span style=&quot;font-size: 20px;&quot;&gt;Liked Hobbyists&lt;/span&gt;" style="rounded=0;whiteSpace=wrap;html=1;" vertex="1" parent="1">
          <mxGeometry x="720" width="200" height="40" as="geometry" />
        </mxCell>
        <mxCell id="ISeNV_ZBtfQk-ASyH4VX-7" value="&lt;span style=&quot;font-size: 20px;&quot;&gt;Settings&lt;/span&gt;" style="rounded=0;whiteSpace=wrap;html=1;" vertex="1" parent="1">
          <mxGeometry x="240" width="200" height="40" as="geometry" />
        </mxCell>
        <mxCell id="ISeNV_ZBtfQk-ASyH4VX-8" value="&lt;span style=&quot;font-size: 20px;&quot;&gt;For Business&lt;/span&gt;" style="rounded=0;whiteSpace=wrap;html=1;" vertex="1" parent="1">
          <mxGeometry x="1000" width="200" height="40" as="geometry" />
        </mxCell>
        <mxCell id="ISeNV_ZBtfQk-ASyH4VX-9" value="&lt;font style=&quot;font-size: 40px;&quot;&gt;Guides&lt;/font&gt;" style="rounded=0;whiteSpace=wrap;html=1;" vertex="1" parent="1">
          <mxGeometry x="440" y="40" width="1040" height="80" as="geometry" />
        </mxCell>
        <mxCell id="1qct0igkVg1zPqGL5c-2-1" value="&lt;span style=&quot;font-size: 40px;&quot;&gt;P1&lt;/span&gt;" style="rounded=0;whiteSpace=wrap;html=1;" vertex="1" parent="1">
          <mxGeometry x="40" y="320" width="400" height="280" as="geometry" />
        </mxCell>
        <mxCell id="1qct0igkVg1zPqGL5c-2-3" value="&lt;span style=&quot;font-size: 30px;&quot;&gt;Genre Filter Button&lt;/span&gt;" style="rounded=0;whiteSpace=wrap;html=1;" vertex="1" parent="1">
          <mxGeometry x="800" y="160" width="200" height="80" as="geometry" />
        </mxCell>
        <mxCell id="1qct0igkVg1zPqGL5c-2-4" value="&lt;span style=&quot;font-size: 30px;&quot;&gt;Date Filter&lt;/span&gt;" style="rounded=0;whiteSpace=wrap;html=1;" vertex="1" parent="1">
          <mxGeometry x="520" y="160" width="200" height="80" as="geometry" />
        </mxCell>
        <mxCell id="1qct0igkVg1zPqGL5c-2-5" value="&lt;span style=&quot;font-size: 30px;&quot;&gt;Search&lt;/span&gt;" style="rounded=0;whiteSpace=wrap;html=1;" vertex="1" parent="1">
          <mxGeometry x="40" y="160" width="270" height="80" as="geometry" />
        </mxCell>
        <mxCell id="1qct0igkVg1zPqGL5c-2-9" value="&lt;span style=&quot;font-size: 40px;&quot;&gt;P&lt;/span&gt;" style="rounded=0;whiteSpace=wrap;html=1;" vertex="1" parent="1">
          <mxGeometry x="520" y="320" width="400" height="280" as="geometry" />
        </mxCell>
        <mxCell id="1qct0igkVg1zPqGL5c-2-10" value="&lt;span style=&quot;font-size: 40px;&quot;&gt;P1&lt;/span&gt;" style="rounded=0;whiteSpace=wrap;html=1;" vertex="1" parent="1">
          <mxGeometry x="1000" y="320" width="400" height="280" as="geometry" />
        </mxCell>
        <mxCell id="1qct0igkVg1zPqGL5c-2-11" value="&lt;span style=&quot;font-size: 40px;&quot;&gt;P1&lt;/span&gt;" style="rounded=0;whiteSpace=wrap;html=1;" vertex="1" parent="1">
          <mxGeometry x="1480" y="320" width="400" height="280" as="geometry" />
        </mxCell>
        <mxCell id="1qct0igkVg1zPqGL5c-2-12" value="&lt;span style=&quot;font-size: 30px;&quot;&gt;Project Name&lt;/span&gt;" style="rounded=0;whiteSpace=wrap;html=1;" vertex="1" parent="1">
          <mxGeometry x="40" y="640" width="400" height="40" as="geometry" />
        </mxCell>
        <mxCell id="1qct0igkVg1zPqGL5c-2-13" value="&lt;span style=&quot;font-size: 30px;&quot;&gt;Description&lt;/span&gt;" style="rounded=0;whiteSpace=wrap;html=1;" vertex="1" parent="1">
          <mxGeometry x="40" y="800" width="400" height="160" as="geometry" />
        </mxCell>
        <mxCell id="1qct0igkVg1zPqGL5c-2-14" value="&lt;span style=&quot;font-size: 30px;&quot;&gt;Tags&lt;/span&gt;" style="rounded=0;whiteSpace=wrap;html=1;" vertex="1" parent="1">
          <mxGeometry x="40" y="1000" width="400" height="80" as="geometry" />
        </mxCell>
        <mxCell id="1qct0igkVg1zPqGL5c-2-15" value="&lt;span style=&quot;font-size: 30px;&quot;&gt;Creator&lt;/span&gt;" style="rounded=0;whiteSpace=wrap;html=1;" vertex="1" parent="1">
          <mxGeometry x="40" y="680" width="400" height="40" as="geometry" />
        </mxCell>
        <mxCell id="1qct0igkVg1zPqGL5c-2-16" value="&lt;span style=&quot;font-size: 30px;&quot;&gt;Date&lt;/span&gt;" style="rounded=0;whiteSpace=wrap;html=1;" vertex="1" parent="1">
          <mxGeometry x="40" y="720" width="400" height="40" as="geometry" />
        </mxCell>
        <mxCell id="1qct0igkVg1zPqGL5c-2-17" value="&lt;span style=&quot;font-size: 30px;&quot;&gt;Project Name&lt;/span&gt;" style="rounded=0;whiteSpace=wrap;html=1;" vertex="1" parent="1">
          <mxGeometry x="1480" y="640" width="400" height="40" as="geometry" />
        </mxCell>
        <mxCell id="1qct0igkVg1zPqGL5c-2-18" value="&lt;span style=&quot;font-size: 30px;&quot;&gt;Description&lt;/span&gt;" style="rounded=0;whiteSpace=wrap;html=1;" vertex="1" parent="1">
          <mxGeometry x="1480" y="800" width="400" height="160" as="geometry" />
        </mxCell>
        <mxCell id="1qct0igkVg1zPqGL5c-2-19" value="&lt;span style=&quot;font-size: 30px;&quot;&gt;Tags&lt;/span&gt;" style="rounded=0;whiteSpace=wrap;html=1;" vertex="1" parent="1">
          <mxGeometry x="1480" y="1000" width="400" height="80" as="geometry" />
        </mxCell>
        <mxCell id="1qct0igkVg1zPqGL5c-2-20" value="&lt;span style=&quot;font-size: 30px;&quot;&gt;Creator&lt;/span&gt;" style="rounded=0;whiteSpace=wrap;html=1;" vertex="1" parent="1">
          <mxGeometry x="1480" y="680" width="400" height="40" as="geometry" />
        </mxCell>
        <mxCell id="1qct0igkVg1zPqGL5c-2-21" value="&lt;span style=&quot;font-size: 30px;&quot;&gt;Date&lt;/span&gt;" style="rounded=0;whiteSpace=wrap;html=1;" vertex="1" parent="1">
          <mxGeometry x="1480" y="720" width="400" height="40" as="geometry" />
        </mxCell>
        <mxCell id="1qct0igkVg1zPqGL5c-2-22" value="&lt;span style=&quot;font-size: 30px;&quot;&gt;Project Name&lt;/span&gt;" style="rounded=0;whiteSpace=wrap;html=1;" vertex="1" parent="1">
          <mxGeometry x="520" y="640" width="400" height="40" as="geometry" />
        </mxCell>
        <mxCell id="1qct0igkVg1zPqGL5c-2-23" value="&lt;span style=&quot;font-size: 30px;&quot;&gt;Description&lt;/span&gt;" style="rounded=0;whiteSpace=wrap;html=1;" vertex="1" parent="1">
          <mxGeometry x="520" y="800" width="400" height="160" as="geometry" />
        </mxCell>
        <mxCell id="1qct0igkVg1zPqGL5c-2-24" value="&lt;span style=&quot;font-size: 30px;&quot;&gt;Tags&lt;/span&gt;" style="rounded=0;whiteSpace=wrap;html=1;" vertex="1" parent="1">
          <mxGeometry x="520" y="1000" width="400" height="80" as="geometry" />
        </mxCell>
        <mxCell id="1qct0igkVg1zPqGL5c-2-25" value="&lt;span style=&quot;font-size: 30px;&quot;&gt;Creator&lt;/span&gt;" style="rounded=0;whiteSpace=wrap;html=1;" vertex="1" parent="1">
          <mxGeometry x="520" y="680" width="400" height="40" as="geometry" />
        </mxCell>
        <mxCell id="1qct0igkVg1zPqGL5c-2-26" value="&lt;span style=&quot;font-size: 30px;&quot;&gt;Date&lt;/span&gt;" style="rounded=0;whiteSpace=wrap;html=1;" vertex="1" parent="1">
          <mxGeometry x="520" y="720" width="400" height="40" as="geometry" />
        </mxCell>
        <mxCell id="1qct0igkVg1zPqGL5c-2-27" value="&lt;span style=&quot;font-size: 30px;&quot;&gt;Project Name&lt;/span&gt;" style="rounded=0;whiteSpace=wrap;html=1;" vertex="1" parent="1">
          <mxGeometry x="1000" y="640" width="400" height="40" as="geometry" />
        </mxCell>
        <mxCell id="1qct0igkVg1zPqGL5c-2-28" value="&lt;span style=&quot;font-size: 30px;&quot;&gt;Description&lt;/span&gt;" style="rounded=0;whiteSpace=wrap;html=1;" vertex="1" parent="1">
          <mxGeometry x="1000" y="800" width="400" height="160" as="geometry" />
        </mxCell>
        <mxCell id="1qct0igkVg1zPqGL5c-2-29" value="&lt;span style=&quot;font-size: 30px;&quot;&gt;Tags&lt;/span&gt;" style="rounded=0;whiteSpace=wrap;html=1;" vertex="1" parent="1">
          <mxGeometry x="1000" y="1000" width="400" height="80" as="geometry" />
        </mxCell>
        <mxCell id="1qct0igkVg1zPqGL5c-2-30" value="&lt;span style=&quot;font-size: 30px;&quot;&gt;Creator&lt;/span&gt;" style="rounded=0;whiteSpace=wrap;html=1;" vertex="1" parent="1">
          <mxGeometry x="1000" y="680" width="400" height="40" as="geometry" />
        </mxCell>
        <mxCell id="1qct0igkVg1zPqGL5c-2-31" value="&lt;span style=&quot;font-size: 30px;&quot;&gt;Date&lt;/span&gt;" style="rounded=0;whiteSpace=wrap;html=1;" vertex="1" parent="1">
          <mxGeometry x="1000" y="720" width="400" height="40" as="geometry" />
        </mxCell>
        <mxCell id="1qct0igkVg1zPqGL5c-2-32" value="&lt;span style=&quot;font-size: 30px;&quot;&gt;Page&lt;/span&gt;&lt;div&gt;&lt;span style=&quot;font-size: 30px;&quot;&gt;#&lt;/span&gt;&lt;/div&gt;" style="rounded=0;whiteSpace=wrap;html=1;" vertex="1" parent="1">
          <mxGeometry x="360" y="160" width="70" height="80" as="geometry" />
        </mxCell>
      </root>
    </mxGraphModel>
  </diagram>
  <diagram id="2jfUcZYdyrzDOgDhqUXm" name="Liked Hobbyists">
    <mxGraphModel grid="1" page="1" gridSize="10" guides="1" tooltips="1" connect="1" arrows="1" fold="1" pageScale="1" pageWidth="1920" pageHeight="1080" math="0" shadow="0">
      <root>
        <mxCell id="0" />
        <mxCell id="1" parent="0" />
        <mxCell id="K7lTn-w55gv7yuOz5X18-1" value="&lt;font style=&quot;font-size: 20px;&quot;&gt;Home&lt;/font&gt;" style="rounded=0;whiteSpace=wrap;html=1;" vertex="1" parent="1">
          <mxGeometry width="200" height="40" as="geometry" />
        </mxCell>
        <mxCell id="K7lTn-w55gv7yuOz5X18-2" value="&lt;font style=&quot;font-size: 20px;&quot;&gt;My Account&lt;/font&gt;" style="rounded=0;whiteSpace=wrap;html=1;" vertex="1" parent="1">
          <mxGeometry x="1720" width="200" height="40" as="geometry" />
        </mxCell>
        <mxCell id="K7lTn-w55gv7yuOz5X18-3" value="&lt;font style=&quot;font-size: 20px;&quot;&gt;My Logs&lt;/font&gt;" style="rounded=0;whiteSpace=wrap;html=1;" vertex="1" parent="1">
          <mxGeometry x="1480" width="200" height="40" as="geometry" />
        </mxCell>
        <mxCell id="K7lTn-w55gv7yuOz5X18-4" value="&lt;font style=&quot;font-size: 20px;&quot;&gt;My Spending&lt;/font&gt;" style="rounded=0;whiteSpace=wrap;html=1;" vertex="1" parent="1">
          <mxGeometry x="1240" width="200" height="40" as="geometry" />
        </mxCell>
        <mxCell id="K7lTn-w55gv7yuOz5X18-5" value="&lt;span style=&quot;font-size: 20px;&quot;&gt;Guides&lt;/span&gt;" style="rounded=0;whiteSpace=wrap;html=1;" vertex="1" parent="1">
          <mxGeometry x="480" width="200" height="40" as="geometry" />
        </mxCell>
        <mxCell id="K7lTn-w55gv7yuOz5X18-6" value="&lt;span style=&quot;font-size: 20px;&quot;&gt;Liked Hobbyists&lt;/span&gt;" style="rounded=0;whiteSpace=wrap;html=1;" vertex="1" parent="1">
          <mxGeometry x="720" width="200" height="40" as="geometry" />
        </mxCell>
        <mxCell id="K7lTn-w55gv7yuOz5X18-7" value="&lt;span style=&quot;font-size: 20px;&quot;&gt;Settings&lt;/span&gt;" style="rounded=0;whiteSpace=wrap;html=1;" vertex="1" parent="1">
          <mxGeometry x="240" width="200" height="40" as="geometry" />
        </mxCell>
        <mxCell id="K7lTn-w55gv7yuOz5X18-8" value="&lt;span style=&quot;font-size: 20px;&quot;&gt;For Business&lt;/span&gt;" style="rounded=0;whiteSpace=wrap;html=1;" vertex="1" parent="1">
          <mxGeometry x="1000" width="200" height="40" as="geometry" />
        </mxCell>
        <mxCell id="K7lTn-w55gv7yuOz5X18-9" value="&lt;font style=&quot;font-size: 40px;&quot;&gt;Liked Hobbyists&lt;/font&gt;" style="rounded=0;whiteSpace=wrap;html=1;" vertex="1" parent="1">
          <mxGeometry x="440" y="40" width="1040" height="80" as="geometry" />
        </mxCell>
        <mxCell id="K7lTn-w55gv7yuOz5X18-10" value="&lt;span style=&quot;font-size: 40px;&quot;&gt;P1&lt;/span&gt;" style="rounded=0;whiteSpace=wrap;html=1;" vertex="1" parent="1">
          <mxGeometry x="40" y="320" width="400" height="280" as="geometry" />
        </mxCell>
        <mxCell id="K7lTn-w55gv7yuOz5X18-11" value="&lt;span style=&quot;font-size: 30px;&quot;&gt;Genre Filter Button&lt;/span&gt;" style="rounded=0;whiteSpace=wrap;html=1;" vertex="1" parent="1">
          <mxGeometry x="800" y="160" width="200" height="80" as="geometry" />
        </mxCell>
        <mxCell id="K7lTn-w55gv7yuOz5X18-12" value="&lt;span style=&quot;font-size: 30px;&quot;&gt;Date Filter&lt;/span&gt;" style="rounded=0;whiteSpace=wrap;html=1;" vertex="1" parent="1">
          <mxGeometry x="520" y="160" width="200" height="80" as="geometry" />
        </mxCell>
        <mxCell id="K7lTn-w55gv7yuOz5X18-13" value="&lt;span style=&quot;font-size: 30px;&quot;&gt;Search&lt;/span&gt;" style="rounded=0;whiteSpace=wrap;html=1;" vertex="1" parent="1">
          <mxGeometry x="40" y="160" width="270" height="80" as="geometry" />
        </mxCell>
        <mxCell id="K7lTn-w55gv7yuOz5X18-14" value="&lt;span style=&quot;font-size: 40px;&quot;&gt;P&lt;/span&gt;" style="rounded=0;whiteSpace=wrap;html=1;" vertex="1" parent="1">
          <mxGeometry x="520" y="320" width="400" height="280" as="geometry" />
        </mxCell>
        <mxCell id="K7lTn-w55gv7yuOz5X18-15" value="&lt;span style=&quot;font-size: 40px;&quot;&gt;P1&lt;/span&gt;" style="rounded=0;whiteSpace=wrap;html=1;" vertex="1" parent="1">
          <mxGeometry x="1000" y="320" width="400" height="280" as="geometry" />
        </mxCell>
        <mxCell id="K7lTn-w55gv7yuOz5X18-16" value="&lt;span style=&quot;font-size: 40px;&quot;&gt;P1&lt;/span&gt;" style="rounded=0;whiteSpace=wrap;html=1;" vertex="1" parent="1">
          <mxGeometry x="1480" y="320" width="400" height="280" as="geometry" />
        </mxCell>
        <mxCell id="K7lTn-w55gv7yuOz5X18-17" value="&lt;span style=&quot;font-size: 30px;&quot;&gt;Project Name&lt;/span&gt;" style="rounded=0;whiteSpace=wrap;html=1;" vertex="1" parent="1">
          <mxGeometry x="40" y="640" width="400" height="40" as="geometry" />
        </mxCell>
        <mxCell id="K7lTn-w55gv7yuOz5X18-18" value="&lt;span style=&quot;font-size: 30px;&quot;&gt;Description&lt;/span&gt;" style="rounded=0;whiteSpace=wrap;html=1;" vertex="1" parent="1">
          <mxGeometry x="40" y="800" width="400" height="160" as="geometry" />
        </mxCell>
        <mxCell id="K7lTn-w55gv7yuOz5X18-19" value="&lt;span style=&quot;font-size: 30px;&quot;&gt;Tags&lt;/span&gt;" style="rounded=0;whiteSpace=wrap;html=1;" vertex="1" parent="1">
          <mxGeometry x="40" y="1000" width="400" height="80" as="geometry" />
        </mxCell>
        <mxCell id="K7lTn-w55gv7yuOz5X18-20" value="&lt;span style=&quot;font-size: 30px;&quot;&gt;Creator&lt;/span&gt;" style="rounded=0;whiteSpace=wrap;html=1;" vertex="1" parent="1">
          <mxGeometry x="40" y="680" width="400" height="40" as="geometry" />
        </mxCell>
        <mxCell id="K7lTn-w55gv7yuOz5X18-21" value="&lt;span style=&quot;font-size: 30px;&quot;&gt;Date&lt;/span&gt;" style="rounded=0;whiteSpace=wrap;html=1;" vertex="1" parent="1">
          <mxGeometry x="40" y="720" width="400" height="40" as="geometry" />
        </mxCell>
        <mxCell id="K7lTn-w55gv7yuOz5X18-22" value="&lt;span style=&quot;font-size: 30px;&quot;&gt;Project Name&lt;/span&gt;" style="rounded=0;whiteSpace=wrap;html=1;" vertex="1" parent="1">
          <mxGeometry x="1480" y="640" width="400" height="40" as="geometry" />
        </mxCell>
        <mxCell id="K7lTn-w55gv7yuOz5X18-23" value="&lt;span style=&quot;font-size: 30px;&quot;&gt;Description&lt;/span&gt;" style="rounded=0;whiteSpace=wrap;html=1;" vertex="1" parent="1">
          <mxGeometry x="1480" y="800" width="400" height="160" as="geometry" />
        </mxCell>
        <mxCell id="K7lTn-w55gv7yuOz5X18-24" value="&lt;span style=&quot;font-size: 30px;&quot;&gt;Tags&lt;/span&gt;" style="rounded=0;whiteSpace=wrap;html=1;" vertex="1" parent="1">
          <mxGeometry x="1480" y="1000" width="400" height="80" as="geometry" />
        </mxCell>
        <mxCell id="K7lTn-w55gv7yuOz5X18-25" value="&lt;span style=&quot;font-size: 30px;&quot;&gt;Creator&lt;/span&gt;" style="rounded=0;whiteSpace=wrap;html=1;" vertex="1" parent="1">
          <mxGeometry x="1480" y="680" width="400" height="40" as="geometry" />
        </mxCell>
        <mxCell id="K7lTn-w55gv7yuOz5X18-26" value="&lt;span style=&quot;font-size: 30px;&quot;&gt;Date&lt;/span&gt;" style="rounded=0;whiteSpace=wrap;html=1;" vertex="1" parent="1">
          <mxGeometry x="1480" y="720" width="400" height="40" as="geometry" />
        </mxCell>
        <mxCell id="K7lTn-w55gv7yuOz5X18-27" value="&lt;span style=&quot;font-size: 30px;&quot;&gt;Project Name&lt;/span&gt;" style="rounded=0;whiteSpace=wrap;html=1;" vertex="1" parent="1">
          <mxGeometry x="520" y="640" width="400" height="40" as="geometry" />
        </mxCell>
        <mxCell id="K7lTn-w55gv7yuOz5X18-28" value="&lt;span style=&quot;font-size: 30px;&quot;&gt;Description&lt;/span&gt;" style="rounded=0;whiteSpace=wrap;html=1;" vertex="1" parent="1">
          <mxGeometry x="520" y="800" width="400" height="160" as="geometry" />
        </mxCell>
        <mxCell id="K7lTn-w55gv7yuOz5X18-29" value="&lt;span style=&quot;font-size: 30px;&quot;&gt;Tags&lt;/span&gt;" style="rounded=0;whiteSpace=wrap;html=1;" vertex="1" parent="1">
          <mxGeometry x="520" y="1000" width="400" height="80" as="geometry" />
        </mxCell>
        <mxCell id="K7lTn-w55gv7yuOz5X18-30" value="&lt;span style=&quot;font-size: 30px;&quot;&gt;Creator&lt;/span&gt;" style="rounded=0;whiteSpace=wrap;html=1;" vertex="1" parent="1">
          <mxGeometry x="520" y="680" width="400" height="40" as="geometry" />
        </mxCell>
        <mxCell id="K7lTn-w55gv7yuOz5X18-31" value="&lt;span style=&quot;font-size: 30px;&quot;&gt;Date&lt;/span&gt;" style="rounded=0;whiteSpace=wrap;html=1;" vertex="1" parent="1">
          <mxGeometry x="520" y="720" width="400" height="40" as="geometry" />
        </mxCell>
        <mxCell id="K7lTn-w55gv7yuOz5X18-32" value="&lt;span style=&quot;font-size: 30px;&quot;&gt;Project Name&lt;/span&gt;" style="rounded=0;whiteSpace=wrap;html=1;" vertex="1" parent="1">
          <mxGeometry x="1000" y="640" width="400" height="40" as="geometry" />
        </mxCell>
        <mxCell id="K7lTn-w55gv7yuOz5X18-33" value="&lt;span style=&quot;font-size: 30px;&quot;&gt;Description&lt;/span&gt;" style="rounded=0;whiteSpace=wrap;html=1;" vertex="1" parent="1">
          <mxGeometry x="1000" y="800" width="400" height="160" as="geometry" />
        </mxCell>
        <mxCell id="K7lTn-w55gv7yuOz5X18-34" value="&lt;span style=&quot;font-size: 30px;&quot;&gt;Tags&lt;/span&gt;" style="rounded=0;whiteSpace=wrap;html=1;" vertex="1" parent="1">
          <mxGeometry x="1000" y="1000" width="400" height="80" as="geometry" />
        </mxCell>
        <mxCell id="K7lTn-w55gv7yuOz5X18-35" value="&lt;span style=&quot;font-size: 30px;&quot;&gt;Creator&lt;/span&gt;" style="rounded=0;whiteSpace=wrap;html=1;" vertex="1" parent="1">
          <mxGeometry x="1000" y="680" width="400" height="40" as="geometry" />
        </mxCell>
        <mxCell id="K7lTn-w55gv7yuOz5X18-36" value="&lt;span style=&quot;font-size: 30px;&quot;&gt;Date&lt;/span&gt;" style="rounded=0;whiteSpace=wrap;html=1;" vertex="1" parent="1">
          <mxGeometry x="1000" y="720" width="400" height="40" as="geometry" />
        </mxCell>
        <mxCell id="K7lTn-w55gv7yuOz5X18-37" value="&lt;span style=&quot;font-size: 30px;&quot;&gt;Page&lt;/span&gt;&lt;div&gt;&lt;span style=&quot;font-size: 30px;&quot;&gt;#&lt;/span&gt;&lt;/div&gt;" style="rounded=0;whiteSpace=wrap;html=1;" vertex="1" parent="1">
          <mxGeometry x="360" y="160" width="70" height="80" as="geometry" />
        </mxCell>
        <mxCell id="gnEfR9oXRyY-JBMRg9OY-1" value="&lt;font style=&quot;font-size: 40px;&quot;&gt;This page only displays hobbyists liked by the user, every project is the latest updated per creator&lt;/font&gt;" style="text;strokeColor=none;align=center;fillColor=none;html=1;verticalAlign=middle;whiteSpace=wrap;rounded=0;" vertex="1" parent="1">
          <mxGeometry x="1040" y="150" width="840" height="100" as="geometry" />
        </mxCell>
      </root>
    </mxGraphModel>
  </diagram>
  <diagram id="uxgtcSW1_98S_anMu3g0" name="Business Analytics">
    <mxGraphModel grid="1" page="1" gridSize="10" guides="1" tooltips="1" connect="1" arrows="1" fold="1" pageScale="1" pageWidth="1920" pageHeight="1080" math="0" shadow="0">
      <root>
        <mxCell id="0" />
        <mxCell id="1" parent="0" />
        <mxCell id="lgZ0BltjFRQvX09JAAkG-1" value="&lt;font style=&quot;font-size: 20px;&quot;&gt;Home&lt;/font&gt;" style="rounded=0;whiteSpace=wrap;html=1;" vertex="1" parent="1">
          <mxGeometry width="200" height="40" as="geometry" />
        </mxCell>
        <mxCell id="lgZ0BltjFRQvX09JAAkG-2" value="&lt;font style=&quot;font-size: 20px;&quot;&gt;My Account&lt;/font&gt;" style="rounded=0;whiteSpace=wrap;html=1;" vertex="1" parent="1">
          <mxGeometry x="1720" width="200" height="40" as="geometry" />
        </mxCell>
        <mxCell id="lgZ0BltjFRQvX09JAAkG-3" value="&lt;font style=&quot;font-size: 20px;&quot;&gt;My Logs&lt;/font&gt;" style="rounded=0;whiteSpace=wrap;html=1;" vertex="1" parent="1">
          <mxGeometry x="1480" width="200" height="40" as="geometry" />
        </mxCell>
        <mxCell id="lgZ0BltjFRQvX09JAAkG-4" value="&lt;font style=&quot;font-size: 20px;&quot;&gt;My Spending&lt;/font&gt;" style="rounded=0;whiteSpace=wrap;html=1;" vertex="1" parent="1">
          <mxGeometry x="1240" width="200" height="40" as="geometry" />
        </mxCell>
        <mxCell id="lgZ0BltjFRQvX09JAAkG-5" value="&lt;span style=&quot;font-size: 20px;&quot;&gt;Guides&lt;/span&gt;" style="rounded=0;whiteSpace=wrap;html=1;" vertex="1" parent="1">
          <mxGeometry x="480" width="200" height="40" as="geometry" />
        </mxCell>
        <mxCell id="lgZ0BltjFRQvX09JAAkG-6" value="&lt;span style=&quot;font-size: 20px;&quot;&gt;Liked Hobbyists&lt;/span&gt;" style="rounded=0;whiteSpace=wrap;html=1;" vertex="1" parent="1">
          <mxGeometry x="720" width="200" height="40" as="geometry" />
        </mxCell>
        <mxCell id="lgZ0BltjFRQvX09JAAkG-7" value="&lt;span style=&quot;font-size: 20px;&quot;&gt;Settings&lt;/span&gt;" style="rounded=0;whiteSpace=wrap;html=1;" vertex="1" parent="1">
          <mxGeometry x="240" width="200" height="40" as="geometry" />
        </mxCell>
        <mxCell id="lgZ0BltjFRQvX09JAAkG-8" value="&lt;span style=&quot;font-size: 20px;&quot;&gt;For Business&lt;/span&gt;" style="rounded=0;whiteSpace=wrap;html=1;" vertex="1" parent="1">
          <mxGeometry x="1000" width="200" height="40" as="geometry" />
        </mxCell>
        <mxCell id="lgZ0BltjFRQvX09JAAkG-9" value="&lt;span style=&quot;font-size: 40px;&quot;&gt;Business Analytics&lt;/span&gt;" style="rounded=0;whiteSpace=wrap;html=1;" vertex="1" parent="1">
          <mxGeometry x="440" y="40" width="1040" height="80" as="geometry" />
        </mxCell>
        <mxCell id="lgZ0BltjFRQvX09JAAkG-10" value="&lt;span style=&quot;font-size: 40px;&quot;&gt;P1&lt;/span&gt;" style="rounded=0;whiteSpace=wrap;html=1;" vertex="1" parent="1">
          <mxGeometry x="40" y="320" width="400" height="280" as="geometry" />
        </mxCell>
        <mxCell id="lgZ0BltjFRQvX09JAAkG-11" value="&lt;span style=&quot;font-size: 30px;&quot;&gt;Genre Filter Button&lt;/span&gt;" style="rounded=0;whiteSpace=wrap;html=1;" vertex="1" parent="1">
          <mxGeometry x="800" y="160" width="200" height="80" as="geometry" />
        </mxCell>
        <mxCell id="lgZ0BltjFRQvX09JAAkG-12" value="&lt;span style=&quot;font-size: 30px;&quot;&gt;Date Filter&lt;/span&gt;" style="rounded=0;whiteSpace=wrap;html=1;" vertex="1" parent="1">
          <mxGeometry x="520" y="160" width="200" height="80" as="geometry" />
        </mxCell>
        <mxCell id="lgZ0BltjFRQvX09JAAkG-13" value="&lt;span style=&quot;font-size: 30px;&quot;&gt;Product Search&lt;/span&gt;" style="rounded=0;whiteSpace=wrap;html=1;" vertex="1" parent="1">
          <mxGeometry x="40" y="160" width="270" height="80" as="geometry" />
        </mxCell>
        <mxCell id="lgZ0BltjFRQvX09JAAkG-17" value="&lt;span style=&quot;font-size: 30px;&quot;&gt;Product Name&lt;/span&gt;" style="rounded=0;whiteSpace=wrap;html=1;" vertex="1" parent="1">
          <mxGeometry x="40" y="640" width="400" height="40" as="geometry" />
        </mxCell>
        <mxCell id="lgZ0BltjFRQvX09JAAkG-18" value="&lt;span style=&quot;font-size: 30px;&quot;&gt;Description&lt;/span&gt;" style="rounded=0;whiteSpace=wrap;html=1;" vertex="1" parent="1">
          <mxGeometry x="40" y="800" width="400" height="160" as="geometry" />
        </mxCell>
        <mxCell id="lgZ0BltjFRQvX09JAAkG-19" value="&lt;span style=&quot;font-size: 30px;&quot;&gt;Tags&lt;/span&gt;" style="rounded=0;whiteSpace=wrap;html=1;" vertex="1" parent="1">
          <mxGeometry x="40" y="1000" width="400" height="80" as="geometry" />
        </mxCell>
        <mxCell id="lgZ0BltjFRQvX09JAAkG-20" value="&lt;span style=&quot;font-size: 30px;&quot;&gt;Reported Units bought&lt;/span&gt;" style="rounded=0;whiteSpace=wrap;html=1;" vertex="1" parent="1">
          <mxGeometry x="40" y="680" width="400" height="40" as="geometry" />
        </mxCell>
        <mxCell id="lgZ0BltjFRQvX09JAAkG-21" value="&lt;span style=&quot;font-size: 30px;&quot;&gt;Date - Date&lt;/span&gt;" style="rounded=0;whiteSpace=wrap;html=1;" vertex="1" parent="1">
          <mxGeometry x="40" y="720" width="400" height="40" as="geometry" />
        </mxCell>
        <mxCell id="lgZ0BltjFRQvX09JAAkG-37" value="&lt;span style=&quot;font-size: 30px;&quot;&gt;Page&lt;/span&gt;&lt;div&gt;&lt;span style=&quot;font-size: 30px;&quot;&gt;#&lt;/span&gt;&lt;/div&gt;" style="rounded=0;whiteSpace=wrap;html=1;" vertex="1" parent="1">
          <mxGeometry x="360" y="160" width="70" height="80" as="geometry" />
        </mxCell>
        <mxCell id="IzCgDnfK88QiPEuYt6wV-1" value="&lt;font style=&quot;font-size: 35px;&quot;&gt;This page should display products, units purchased and the date they were bought. Businesses can only view products they have sold&lt;/font&gt;" style="text;strokeColor=none;align=center;fillColor=none;html=1;verticalAlign=middle;whiteSpace=wrap;rounded=0;" vertex="1" parent="1">
          <mxGeometry x="1040" y="150" width="840" height="100" as="geometry" />
        </mxCell>
        <mxCell id="IzCgDnfK88QiPEuYt6wV-2" value="&lt;span style=&quot;font-size: 40px;&quot;&gt;P1&lt;/span&gt;" style="rounded=0;whiteSpace=wrap;html=1;" vertex="1" parent="1">
          <mxGeometry x="520" y="320" width="400" height="280" as="geometry" />
        </mxCell>
        <mxCell id="IzCgDnfK88QiPEuYt6wV-3" value="&lt;span style=&quot;font-size: 30px;&quot;&gt;Product Name&lt;/span&gt;" style="rounded=0;whiteSpace=wrap;html=1;" vertex="1" parent="1">
          <mxGeometry x="520" y="640" width="400" height="40" as="geometry" />
        </mxCell>
        <mxCell id="IzCgDnfK88QiPEuYt6wV-4" value="&lt;span style=&quot;font-size: 30px;&quot;&gt;Description&lt;/span&gt;" style="rounded=0;whiteSpace=wrap;html=1;" vertex="1" parent="1">
          <mxGeometry x="520" y="800" width="400" height="160" as="geometry" />
        </mxCell>
        <mxCell id="IzCgDnfK88QiPEuYt6wV-5" value="&lt;span style=&quot;font-size: 30px;&quot;&gt;Tags&lt;/span&gt;" style="rounded=0;whiteSpace=wrap;html=1;" vertex="1" parent="1">
          <mxGeometry x="520" y="1000" width="400" height="80" as="geometry" />
        </mxCell>
        <mxCell id="IzCgDnfK88QiPEuYt6wV-6" value="&lt;span style=&quot;font-size: 30px;&quot;&gt;Reported Units bought&lt;/span&gt;" style="rounded=0;whiteSpace=wrap;html=1;" vertex="1" parent="1">
          <mxGeometry x="520" y="680" width="400" height="40" as="geometry" />
        </mxCell>
        <mxCell id="IzCgDnfK88QiPEuYt6wV-7" value="&lt;span style=&quot;font-size: 30px;&quot;&gt;Date - Date&lt;/span&gt;" style="rounded=0;whiteSpace=wrap;html=1;" vertex="1" parent="1">
          <mxGeometry x="520" y="720" width="400" height="40" as="geometry" />
        </mxCell>
        <mxCell id="IzCgDnfK88QiPEuYt6wV-8" value="&lt;span style=&quot;font-size: 40px;&quot;&gt;P1&lt;/span&gt;" style="rounded=0;whiteSpace=wrap;html=1;" vertex="1" parent="1">
          <mxGeometry x="1000" y="320" width="400" height="280" as="geometry" />
        </mxCell>
        <mxCell id="IzCgDnfK88QiPEuYt6wV-9" value="&lt;span style=&quot;font-size: 30px;&quot;&gt;Product Name&lt;/span&gt;" style="rounded=0;whiteSpace=wrap;html=1;" vertex="1" parent="1">
          <mxGeometry x="1000" y="640" width="400" height="40" as="geometry" />
        </mxCell>
        <mxCell id="IzCgDnfK88QiPEuYt6wV-10" value="&lt;span style=&quot;font-size: 30px;&quot;&gt;Description&lt;/span&gt;" style="rounded=0;whiteSpace=wrap;html=1;" vertex="1" parent="1">
          <mxGeometry x="1000" y="800" width="400" height="160" as="geometry" />
        </mxCell>
        <mxCell id="IzCgDnfK88QiPEuYt6wV-11" value="&lt;span style=&quot;font-size: 30px;&quot;&gt;Tags&lt;/span&gt;" style="rounded=0;whiteSpace=wrap;html=1;" vertex="1" parent="1">
          <mxGeometry x="1000" y="1000" width="400" height="80" as="geometry" />
        </mxCell>
        <mxCell id="IzCgDnfK88QiPEuYt6wV-12" value="&lt;span style=&quot;font-size: 30px;&quot;&gt;Reported Units bought&lt;/span&gt;" style="rounded=0;whiteSpace=wrap;html=1;" vertex="1" parent="1">
          <mxGeometry x="1000" y="680" width="400" height="40" as="geometry" />
        </mxCell>
        <mxCell id="IzCgDnfK88QiPEuYt6wV-13" value="&lt;span style=&quot;font-size: 30px;&quot;&gt;Date - Date&lt;/span&gt;" style="rounded=0;whiteSpace=wrap;html=1;" vertex="1" parent="1">
          <mxGeometry x="1000" y="720" width="400" height="40" as="geometry" />
        </mxCell>
        <mxCell id="IzCgDnfK88QiPEuYt6wV-14" value="&lt;span style=&quot;font-size: 40px;&quot;&gt;P1&lt;/span&gt;" style="rounded=0;whiteSpace=wrap;html=1;" vertex="1" parent="1">
          <mxGeometry x="1480" y="320" width="400" height="280" as="geometry" />
        </mxCell>
        <mxCell id="IzCgDnfK88QiPEuYt6wV-15" value="&lt;span style=&quot;font-size: 30px;&quot;&gt;Product Name&lt;/span&gt;" style="rounded=0;whiteSpace=wrap;html=1;" vertex="1" parent="1">
          <mxGeometry x="1480" y="640" width="400" height="40" as="geometry" />
        </mxCell>
        <mxCell id="IzCgDnfK88QiPEuYt6wV-16" value="&lt;span style=&quot;font-size: 30px;&quot;&gt;Description&lt;/span&gt;" style="rounded=0;whiteSpace=wrap;html=1;" vertex="1" parent="1">
          <mxGeometry x="1480" y="800" width="400" height="160" as="geometry" />
        </mxCell>
        <mxCell id="IzCgDnfK88QiPEuYt6wV-17" value="&lt;span style=&quot;font-size: 30px;&quot;&gt;Tags&lt;/span&gt;" style="rounded=0;whiteSpace=wrap;html=1;" vertex="1" parent="1">
          <mxGeometry x="1480" y="1000" width="400" height="80" as="geometry" />
        </mxCell>
        <mxCell id="IzCgDnfK88QiPEuYt6wV-18" value="&lt;span style=&quot;font-size: 30px;&quot;&gt;Reported Units bought&lt;/span&gt;" style="rounded=0;whiteSpace=wrap;html=1;" vertex="1" parent="1">
          <mxGeometry x="1480" y="680" width="400" height="40" as="geometry" />
        </mxCell>
        <mxCell id="IzCgDnfK88QiPEuYt6wV-19" value="&lt;span style=&quot;font-size: 30px;&quot;&gt;Date - Date&lt;/span&gt;" style="rounded=0;whiteSpace=wrap;html=1;" vertex="1" parent="1">
          <mxGeometry x="1480" y="720" width="400" height="40" as="geometry" />
        </mxCell>
      </root>
    </mxGraphModel>
  </diagram>
</mxfile>
